<svg width="40" height="40" viewBox="0 0 40 40" fill="none" xmlns="http://www.w3.org/2000/svg">
<mask id="mask0_3_25" style="mask-type:luminance" maskUnits="userSpaceOnUse" x="0" y="0" width="40" height="40">
<path d="M40 20C40 8.95431 31.0457 0 20 0C8.95431 0 0 8.95431 0 20C0 31.0457 8.95431 40 20 40C31.0457 40 40 31.0457 40 20Z" fill="white"/>
</mask>
<g mask="url(#mask0_3_25)">
<path d="M40 20C40 8.95431 31.0457 0 20 0C8.95431 0 0 8.95431 0 20C0 31.0457 8.95431 40 20 40C31.0457 40 40 31.0457 40 20Z" fill="white"/>
<path d="M19.8374 23.7398C21.813 23.7398 23.4146 22.1382 23.4146 20.1626C23.4146 18.1869 21.813 16.5853 19.8374 16.5853C17.8617 16.5853 16.2601 18.1869 16.2601 20.1626C16.2601 22.1382 17.8617 23.7398 19.8374 23.7398Z" fill="#1F1F1F"/>
<path d="M24.3089 11.3821H15.3658C14.065 11.3821 12.9268 11.7886 12.1951 12.5203C11.4634 13.252 11.0569 14.3902 11.0569 15.691V24.6341C11.0569 25.9349 11.4634 27.0731 12.2764 27.8862C13.0894 28.6178 14.1463 29.0244 15.4471 29.0244H24.3089C25.6097 29.0244 26.7479 28.6178 27.4796 27.8862C28.2926 27.1544 28.6992 26.0162 28.6992 24.7154V15.7723C28.6992 14.4715 28.2926 13.4146 27.5609 12.6016C26.7479 11.7886 25.691 11.3821 24.3089 11.3821ZM19.8374 25.691C16.7479 25.691 14.3089 23.1707 14.3089 20.1626C14.3089 17.0731 16.8292 14.6341 19.8374 14.6341C22.8455 14.6341 25.4471 17.0731 25.4471 20.1626C25.4471 23.252 22.9268 25.691 19.8374 25.691ZM25.6097 15.691C24.878 15.691 24.3089 15.1219 24.3089 14.3902C24.3089 13.6585 24.878 13.0894 25.6097 13.0894C26.3414 13.0894 26.9105 13.6585 26.9105 14.3902C26.9105 15.1219 26.3414 15.691 25.6097 15.691Z" fill="#1F1F1F"/>
<path d="M20 0C8.94308 0 0 8.94308 0 20C0 31.0569 8.94308 40 20 40C31.0569 40 40 31.0569 40 20C40.0812 8.94308 31.0569 0 20 0ZM30.6504 24.7154C30.6504 26.5854 30 28.2114 28.8618 29.3496C27.7236 30.4878 26.0976 31.0569 24.309 31.0569H15.4472C13.6585 31.0569 12.0325 30.4878 10.8943 29.3496C9.6748 28.2114 9.10568 26.5854 9.10568 24.7154V15.7724C9.10568 12.0325 11.626 9.43088 15.4472 9.43088H24.3902C26.2602 9.43088 27.8049 10.0813 28.9431 11.2195C30.0813 12.3577 30.6504 13.9024 30.6504 15.7724V24.7154Z" fill="#1F1F1F"/>
</g>
</svg>
