<svg width="20" height="21" viewBox="0 0 20 21" fill="none" xmlns="http://www.w3.org/2000/svg">
<path d="M3.33984 9.46021C3.33984 8.65291 3.48958 7.89771 3.78906 7.19458C4.10156 6.49146 4.52148 5.87622 5.04883 5.34888C5.57617 4.82153 6.19141 4.40161 6.89453 4.08911C7.59766 3.78963 8.35286 3.63989 9.16016 3.63989C9.96745 3.63989 10.7292 3.78963 11.4453 4.08911C12.1484 4.40161 12.7637 4.82153 13.291 5.34888C13.8184 5.87622 14.2383 6.49146 14.5508 7.19458C14.8503 7.89771 15 8.65291 15 9.46021C15 10.2675 14.8503 11.0292 14.5508 11.7454C14.2383 12.4485 13.8184 13.0637 13.291 13.5911C12.7637 14.1184 12.1484 14.5383 11.4453 14.8508C10.7292 15.1503 9.96745 15.3 9.16016 15.3C8.35286 15.3 7.59766 15.1503 6.89453 14.8508C6.19141 14.5383 5.57617 14.1184 5.04883 13.5911C4.52148 13.0637 4.10156 12.4485 3.78906 11.7454C3.48958 11.0292 3.33984 10.2675 3.33984 9.46021ZM9.16016 1.96021C8.13151 1.96021 7.16146 2.16203 6.25 2.56567C5.33854 2.9563 4.54427 3.49015 3.86719 4.16724C3.1901 4.84432 2.65625 5.63859 2.26562 6.55005C1.86198 7.46151 1.66016 8.43156 1.66016 9.46021C1.66016 10.5019 1.86198 11.4784 2.26562 12.3899C2.65625 13.3014 3.1901 14.0956 3.86719 14.7727C4.54427 15.4498 5.33854 15.9836 6.25 16.3743C7.16146 16.7649 8.13151 16.9602 9.16016 16.9602C10.0456 16.9602 10.8887 16.817 11.6895 16.5305C12.4902 16.2441 13.2096 15.8404 13.8477 15.3196L16.9141 18.386C17.0703 18.5553 17.2656 18.6399 17.5 18.6399C17.7344 18.6399 17.9297 18.5553 18.0859 18.386C18.2552 18.2297 18.3398 18.0344 18.3398 17.8C18.3398 17.5657 18.2552 17.3704 18.0859 17.2141L15.0195 14.1477C15.5404 13.5097 15.944 12.7903 16.2305 11.9895C16.5169 11.1887 16.6602 10.3456 16.6602 9.46021C16.6602 8.43156 16.4648 7.46151 16.0742 6.55005C15.6836 5.63859 15.1497 4.84432 14.4727 4.16724C13.7956 3.49015 13.0013 2.9563 12.0898 2.56567C11.1784 2.16203 10.2018 1.96021 9.16016 1.96021Z" fill="#1F1F1F"/>
</svg>
