<svg width="40" height="40" viewBox="0 0 40 40" fill="none" xmlns="http://www.w3.org/2000/svg">
<path d="M40 20C40 8.95431 31.0457 0 20 0C8.95431 0 0 8.95431 0 20C0 31.0457 8.95431 40 20 40C31.0457 40 40 31.0457 40 20Z" fill="#1F1F1F"/>
<path d="M30 13.8471C29.3606 14.2023 28.5791 14.4154 27.8687 14.4865C28.6502 13.9892 29.2185 13.2077 29.5027 12.2842C28.7923 12.7104 28.0108 13.0656 27.0872 13.2788C26.3768 12.4973 25.4533 12 24.3876 12C22.3274 12 20.6224 13.7761 20.6224 16.0494C20.6224 16.3336 20.6224 16.6888 20.6934 16.973C17.5675 16.8309 14.7969 15.1969 12.9498 12.7815C12.5946 13.3498 12.4525 14.0602 12.4525 14.8417C12.4525 16.2626 13.0919 17.4703 14.0865 18.1807C13.4471 18.1807 12.8787 17.9676 12.3815 17.6834V17.7544C12.3815 19.6726 13.6602 21.3066 15.3652 21.7328C15.0811 21.8039 14.7259 21.8749 14.3706 21.8749C14.1575 21.8749 13.8733 21.8749 13.6602 21.8039C14.1575 23.4378 15.5073 24.5745 17.1413 24.5745C15.8625 25.6402 14.2285 26.2795 12.5235 26.2795C12.2394 26.2795 11.9552 26.2795 11.6 26.2085C13.2339 27.3452 15.2231 28.0556 17.3544 28.0556C24.2455 28.0556 28.0108 21.946 28.0108 16.6178C28.0108 16.4757 28.0108 16.2626 28.0108 16.1205C28.8633 15.41 29.5027 14.6996 30 13.8471Z" fill="white"/>
</svg>
