<svg width="40" height="40" viewBox="0 0 40 40" fill="none" xmlns="http://www.w3.org/2000/svg">
<path d="M40 20C40 8.95431 31.0457 0 20 0C8.95431 0 0 8.95431 0 20C0 31.0457 8.95431 40 20 40C31.0457 40 40 31.0457 40 20Z" fill="#1F1F1F"/>
<path d="M15.4 15H11.2V28.8H15.4V15Z" fill="white"/>
<path d="M25.6018 15C23.2 15 22.534 15.7872 22 16.8V15H17.8V28.8H22V21C22 19.8 22 18.6 24.1 18.6C26.2 18.6 26.2 19.8 26.2 21V28.8H30.4V21C30.4 17.4 29.8 15 25.6018 15Z" fill="white"/>
<path d="M13.3 13.8C14.4598 13.8 15.4 12.8598 15.4 11.7C15.4 10.5402 14.4598 9.59998 13.3 9.59998C12.1402 9.59998 11.2 10.5402 11.2 11.7C11.2 12.8598 12.1402 13.8 13.3 13.8Z" fill="white"/>
</svg>
