<svg width="28" height="28" viewBox="0 0 28 28" fill="none" xmlns="http://www.w3.org/2000/svg">
<path d="M21 16.625H11.2109L10.7734 14.875H21C21.1823 14.875 21.3464 14.8158 21.4922 14.6973C21.638 14.5788 21.7383 14.4375 21.793 14.2734L24.418 6.39844C24.5091 6.2526 24.5365 6.11589 24.5 5.98828C24.4635 5.86068 24.4089 5.73307 24.3359 5.60547C24.2448 5.51432 24.1354 5.43229 24.0078 5.35938C23.8802 5.28646 23.7526 5.25 23.625 5.25H12.25C11.9948 5.25 11.7852 5.33203 11.6211 5.49609C11.457 5.66016 11.375 5.86979 11.375 6.125C11.375 6.38021 11.457 6.58984 11.6211 6.75391C11.7852 6.91797 11.9948 7 12.25 7H22.3945L20.3984 13.125H10.2266L7.71094 3.5H4.375C4.11979 3.5 3.91016 3.58203 3.74609 3.74609C3.58203 3.91016 3.5 4.11979 3.5 4.375C3.5 4.63021 3.58203 4.83984 3.74609 5.00391C3.91016 5.16797 4.11979 5.25 4.375 5.25H6.28906L9.35156 16.8984C8.69531 17.1536 8.15299 17.5684 7.72461 18.1426C7.29622 18.7168 7.08203 19.3776 7.08203 20.125C7.08203 21.0911 7.42383 21.916 8.10742 22.5996C8.79102 23.2832 9.61589 23.625 10.582 23.625C11.5482 23.625 12.373 23.2832 13.0566 22.5996C13.7402 21.916 14.082 21.0911 14.082 20.125C14.082 19.8151 14.041 19.5098 13.959 19.209C13.877 18.9082 13.7448 18.6302 13.5625 18.375H17.8555C17.7279 18.6302 17.6094 18.9082 17.5 19.209C17.3906 19.5098 17.3359 19.8151 17.3359 20.125C17.3359 21.0911 17.6777 21.916 18.3613 22.5996C19.0449 23.2832 19.8698 23.625 20.8359 23.625C21.7839 23.625 22.6042 23.2832 23.2969 22.5996C23.9896 21.916 24.3359 21.0911 24.3359 20.125C24.3359 19.1589 24.0215 18.334 23.3926 17.6504C22.7637 16.9668 21.9661 16.625 21 16.625ZM12.4141 20.125C12.4141 20.599 12.2454 21.0091 11.9082 21.3555C11.571 21.7018 11.1562 21.875 10.6641 21.875C10.1901 21.875 9.77995 21.7018 9.43359 21.3555C9.08724 21.0091 8.91406 20.599 8.91406 20.125C8.91406 19.651 9.08724 19.2409 9.43359 18.8945C9.77995 18.5482 10.1901 18.375 10.6641 18.375C11.1562 18.375 11.571 18.5482 11.9082 18.8945C12.2454 19.2409 12.4141 19.651 12.4141 20.125ZM21 21.875C20.526 21.875 20.1159 21.7018 19.7695 21.3555C19.4232 21.0091 19.25 20.599 19.25 20.125C19.25 19.651 19.4232 19.2409 19.7695 18.8945C20.1159 18.5482 20.526 18.375 21 18.375C21.474 18.375 21.8841 18.5482 22.2305 18.8945C22.5768 19.2409 22.75 19.651 22.75 20.125C22.75 20.599 22.5768 21.0091 22.2305 21.3555C21.8841 21.7018 21.474 21.875 21 21.875Z" fill="white"/>
</svg>
