<svg width="134" height="30" viewBox="0 0 134 30" fill="none" xmlns="http://www.w3.org/2000/svg">
<path d="M24.3342 7.186C26.2619 7.186 27.9832 7.66644 29.4978 8.62732C31.0262 9.57447 32.2242 10.9197 33.0917 12.663C33.9316 14.3377 34.3516 16.3075 34.3516 18.5724C34.3516 20.7687 33.9316 22.7316 33.0917 24.4612C32.2517 26.1908 31.0675 27.5429 29.5391 28.5175C27.9969 29.5058 26.2619 30 24.3342 30C22.9297 30 21.6078 29.7117 20.3685 29.1352C19.1293 28.5587 18.069 27.7488 17.1877 26.7056V29.4852H10V0H17.1877V10.4598C18.069 9.41661 19.1293 8.61359 20.3685 8.05079C21.6078 7.47426 22.9297 7.186 24.3342 7.186ZM22.1861 24.0494C23.2051 24.0494 24.1139 23.8161 24.9125 23.3493C25.7112 22.8826 26.3377 22.2306 26.7921 21.3933C27.2465 20.5697 27.4737 19.6294 27.4737 18.5724C27.4737 17.5429 27.2465 16.6095 26.7921 15.7721C26.3377 14.9348 25.7112 14.2828 24.9125 13.8161C24.1139 13.3493 23.2051 13.116 22.1861 13.116C21.2223 13.116 20.3617 13.3493 19.6043 13.8161C18.847 14.269 18.2549 14.9073 17.828 15.731C17.4012 16.5683 17.1877 17.5154 17.1877 18.5724C17.1877 19.6294 17.4012 20.5765 17.828 21.4139C18.2549 22.2375 18.847 22.8826 19.6043 23.3493C20.3617 23.8161 21.2223 24.0494 22.1861 24.0494Z" fill="#F8CB46"/>
<path d="M35.3356 29.4852V0H42.5233V29.4852H35.3356Z" fill="#F8CB46"/>
<path d="M44.5607 29.4852V7.68018H51.7071V29.4852H44.5607Z" fill="#F8CB46"/>
<path d="M67.2319 7.18604C68.7603 7.18604 70.1372 7.54294 71.3627 8.25673C72.5882 8.9568 73.5521 9.94512 74.2544 11.2217C74.9291 12.512 75.2664 13.9739 75.2664 15.6074V29.4852H68.4092V17.2135C68.4092 16.4173 68.2508 15.7104 67.9341 15.0927C67.6312 14.4612 67.1974 13.9739 66.6329 13.6307C66.0821 13.2876 65.4349 13.116 64.6914 13.116C63.9891 13.116 63.3419 13.2876 62.7498 13.6307C62.1577 13.9602 61.6965 14.4132 61.366 14.9897C61.0218 15.5388 60.8496 16.1839 60.8496 16.9252L60.8083 29.4852H53.6619V7.6802H60.8083V10.1716C61.483 9.2382 62.3849 8.51068 63.5141 7.98906C64.6432 7.45371 65.8824 7.18604 67.2319 7.18604Z" fill="#F8CB46"/>
<path d="M91.0597 17.2135L99.1769 29.4852H91.0597L86.3091 21.7639L84.1198 24.2965V29.4852H76.932V0H84.1198V16.2869L91.0184 7.68016H99.1356L91.0597 17.2135Z" fill="#F8CB46"/>
<path d="M44.5569 0.00231934H51.7267V5.59206H44.5569V0.00231934Z" fill="#F8CB46"/>
<path d="M100.318 29.4198V7.61475H107.464V29.4198H100.318Z" fill="#54B226"/>
<path d="M122.575 23.2634L124 27.855C123.353 28.4727 122.534 28.9737 121.542 29.3581C120.564 29.7424 119.607 29.9346 118.671 29.9346C117.322 29.9346 116.117 29.6395 115.057 29.0492C113.996 28.4452 113.17 27.6079 112.578 26.5372C111.986 25.494 111.69 24.2929 111.69 22.9339V13.3183H108.819V7.61482H111.69V0.00244141H118.547V7.61482H123.071V13.3183H118.547V21.6161C118.547 22.3162 118.733 22.8859 119.105 23.3251C119.477 23.7644 119.952 23.984 120.53 23.984C120.943 23.984 121.329 23.9223 121.687 23.7987C122.045 23.6752 122.341 23.4967 122.575 23.2634Z" fill="#54B226"/>
<path d="M100.261 0.00244141H107.431V5.59218H100.261V0.00244141Z" fill="#54B226"/>
</svg>
