<svg width="40" height="40" viewBox="0 0 40 40" fill="none" xmlns="http://www.w3.org/2000/svg">
<path d="M40 20C40 8.95431 31.0457 0 20 0C8.95431 0 0 8.95431 0 20C0 31.0457 8.95431 40 20 40C31.0457 40 40 31.0457 40 20Z" fill="white"/>
<path fill-rule="evenodd" clip-rule="evenodd" d="M17.1767 30.88H21.6727V19.9987H24.672L25.0693 16.2493H21.6727L21.6773 14.372C21.6773 13.3947 21.7707 12.87 23.1733 12.87H25.048V9.12H22.048C18.4447 9.12 17.1767 10.9393 17.1767 13.998V16.2493H14.9307V19.9993H17.1767V30.88ZM20 40C8.95468 40 0 31.0453 0 20C0 8.954 8.95468 0 20 0C31.0453 0 40 8.954 40 20C40 31.0453 31.0453 40 20 40Z" fill="#1F1F1F"/>
</svg>
