<svg width="40" height="40" viewBox="0 0 40 40" fill="none" xmlns="http://www.w3.org/2000/svg">
<g clip-path="url(#clip0_3_37)">
<path d="M40 0H0V40H40V0Z" fill="#1F1F1F"/>
<path d="M25.9 19.1C25.8 19 25.7 19 25.6 19C25.4 15.5 23.5 13.5 20.3 13.5C18.4 13.5 16.8 14.3 15.8 15.8L17.6 17C18.3 15.9 19.5 15.6 20.3 15.6C21.4 15.6 22.2 15.9 22.7 16.5C23.1 16.9 23.3 17.5 23.5 18.3C22.6 18.1 21.5 18.1 20.5 18.2C17.4 18.4 15.5 20.2 15.6 22.6C15.7 23.9 16.3 24.9 17.4 25.6C18.3 26.2 19.5 26.5 20.7 26.4C22.3 26.3 23.5 25.7 24.4 24.6C25.1 23.8 25.5 22.7 25.7 21.3C26.5 21.8 26.9999 22.4 27.2999 23.1C27.7999 24.3 27.9 26.4 26.2 28C24.7 29.5 23 30.1 20.4 30.1C17.5 30.1 15.3 29.0999 13.8 27.2999C12.5 25.5999 11.8 23.1 11.7 20C11.7 16.8 12.4 14.4 13.8 12.7C15.2 10.9 17.4 9.89995 20.4 9.89995C23.3 9.89995 25.6 10.9 27.1 12.7C27.8 13.6 28.4 14.7 28.7 16.1L30.7999 15.5C30.3999 13.9 29.7 12.5 28.7 11.3C26.8 8.89995 24 7.69995 20.4 7.69995C16.8 7.69995 14 8.89995 12.2 11.3C10.5 13.4 9.69995 16.3 9.69995 20C9.69995 23.7 10.6 26.6 12.2 28.7C14.1 31.1 16.8 32.2999 20.4 32.2999C23.6 32.2999 25.9 31.4 27.7 29.6C30.1 27.2 30.0999 24.1 29.2999 22.3C28.4999 20.9 27.4 19.8 25.9 19.1ZM20.4 24.2999C19.1 24.3999 17.7 23.8 17.6 22.5C17.5 21.5 18.3 20.5 20.5 20.4C20.8 20.4 21 20.4 21.2 20.4C22 20.4 22.7 20.5 23.4 20.6C23.2 23.7 21.7 24.1999 20.4 24.2999Z" fill="white"/>
</g>
<defs>
<clipPath id="clip0_3_37">
<rect width="40" height="40" fill="white"/>
</clipPath>
</defs>
</svg>
