<svg width="42" height="49" viewBox="0 0 42 49" fill="none" xmlns="http://www.w3.org/2000/svg">
<path d="M21 40.3232C20.7539 40.3232 20.5146 40.2754 20.2822 40.1797C20.0498 40.084 19.8105 39.9131 19.5644 39.667C19.0175 39.1201 18.1015 38.1699 16.8164 36.8164C15.5312 35.4629 14.6152 34.4307 14.0683 33.7197C13.8496 33.4736 13.6171 33.207 13.3711 32.9199C13.125 32.6328 12.8925 32.3799 12.6738 32.1611C12.4277 31.915 12.1884 31.6484 11.956 31.3613C11.7236 31.0742 11.4843 30.8076 11.2382 30.5615C10.5273 29.7959 9.84371 28.7227 9.18746 27.3418C8.53121 25.9609 8.17574 24.6826 8.12106 23.5068C7.79293 21.7842 7.85445 20.1094 8.30563 18.4824C8.7568 16.8555 9.52926 15.3447 10.623 13.9502C11.5527 12.6924 12.7353 11.6191 14.1709 10.7305C15.6064 9.8418 17.1445 9.2334 18.7851 8.90527C20.8359 8.74121 22.75 8.90527 24.5273 9.39746C26.3046 9.88965 27.9043 10.7236 29.3261 11.8994C30.5019 12.8291 31.4795 13.957 32.2587 15.2832C33.038 16.6094 33.5781 18.0928 33.8789 19.7334C34.207 21.6201 34.1386 23.4521 33.6738 25.2295C33.2089 27.0068 32.3886 28.6885 31.2129 30.2744C30.748 30.9033 30.249 31.4912 29.7158 32.0381C29.1826 32.585 28.6425 33.0908 28.0957 33.5557L27.6035 34.0479C26.4277 35.2783 25.3339 36.4473 24.3222 37.5547C23.3105 38.6621 22.5722 39.3662 22.1074 39.667C21.9433 39.9131 21.7588 40.084 21.5537 40.1797C21.3486 40.2754 21.164 40.3232 21 40.3232ZM20.5078 12.0635H19.2773C18.1015 12.2822 16.9599 12.7061 15.8525 13.335C14.7451 13.9639 13.8359 14.7842 13.125 15.7959C12.2773 16.917 11.6689 18.1064 11.2998 19.3643C10.9306 20.6221 10.8554 21.9482 11.0742 23.3428C11.1562 24.1357 11.4433 25.0654 11.9355 26.1318C12.4277 27.1982 12.9882 28.0459 13.6171 28.6748C13.8359 29.0029 14.0683 29.29 14.3144 29.5361C14.5605 29.7822 14.7929 30.0283 15.0117 30.2744C15.2578 30.4932 15.497 30.7461 15.7295 31.0332C15.9619 31.3203 16.2011 31.5869 16.4472 31.833C16.83 32.2979 17.5068 33.0293 18.4775 34.0273C19.4482 35.0254 20.289 35.9209 21 36.7139C21.6289 36.085 22.3603 35.2988 23.1943 34.3555C24.0283 33.4121 24.7597 32.626 25.3886 31.9971L26.0449 31.3408C26.5097 30.958 26.9814 30.5068 27.4599 29.9873C27.9384 29.4678 28.4101 28.9346 28.875 28.3877C29.8046 27.2119 30.4336 25.9336 30.7617 24.5527C31.0898 23.1719 31.1445 21.7705 30.9257 20.3486C30.6796 19.1182 30.2832 17.9971 29.7363 16.9854C29.1894 15.9736 28.4785 15.1123 27.6035 14.4014C26.5097 13.6084 25.3886 13.0205 24.2402 12.6377C23.0918 12.2549 21.8476 12.0635 20.5078 12.0635ZM21 27.2803C19.4961 27.2803 18.2041 26.7334 17.124 25.6396C16.0439 24.5459 15.5039 23.2607 15.5039 21.7842C15.5039 20.2803 16.0439 18.9883 17.124 17.9082C18.2041 16.8281 19.4961 16.2881 21 16.2881C22.5039 16.2881 23.7959 16.8281 24.8759 17.9082C25.956 18.9883 26.4961 20.2803 26.4961 21.7842C26.4961 23.2607 25.956 24.5459 24.8759 25.6396C23.7959 26.7334 22.5039 27.2803 21 27.2803ZM21 19.4463C20.3711 19.4463 19.8173 19.6787 19.3388 20.1436C18.8603 20.6084 18.6211 21.1553 18.6211 21.7842C18.6211 22.4131 18.8603 22.96 19.3388 23.4248C19.8173 23.8896 20.3711 24.1221 21 24.1221C21.6289 24.1221 22.1826 23.8896 22.6611 23.4248C23.1396 22.96 23.3789 22.4131 23.3789 21.7842C23.3789 21.1553 23.1396 20.6084 22.6611 20.1436C22.1826 19.6787 21.6289 19.4463 21 19.4463Z" fill="#333333"/>
</svg>
